<svg xmlns="http://www.w3.org/2000/svg" width="548" height="259" viewBox="0 0 548 259"><g fill="none" fill-rule="evenodd"><path fill="#228BDF" d="M.198 155.564l30.91 13.622 54.39-32.803-30.115-7.955L.198 155.564z"/><path fill="#FFF" d="M53.684 129.924c6.956-4.286 7.733-12.47 7.798-13.372l.012.023c1.585-9.362-4.645-10.096-5.3-10.147l-.01-.01.003-.002h-.004l-.004-.004-.01.004c-5.36-.206-9.45 5.39-9.94 6.098l-.08-.12c-2.39-11.107-10.77-6.485-12.17-5.627h-.02l-.03.03c-.1.06-.15.096-.15.096l.01.006c-11.04 6.81-12.47 19.25-12.6 20.7l-.01.03-.07.05c-.77.2-7.88 2.36-8 11.71l-.03.15c-4.58 1.41-8.56 7.4-7.9 12.46.61 4.74 4.45 3.49 4.95 3.3l.04.08 40.13-23.43 3.15-1.83.2-.23zm-7.428-17.38l.047-.03-.043.036-.004-.007z"/><path fill="#EBF4FB" d="M58.26 107.042l21.053 9-11.507 8.064s-23.22-10.985-18.21-15.14c5.007-4.157 8.664-1.924 8.664-1.924z"/><path fill="#FFF" d="M29.53 164.827L6.9 155.203l31.64-43.938 2.276-6.055 23.534 10.008-10.908 28.147-16.525 17.625-7.386 3.837z"/><path fill="#C5D7E5" d="M75.524 139.195c6.955-4.285 7.732-12.468 7.797-13.37l.02.022c1.59-9.362-4.64-10.096-5.3-10.147l-.01-.01.01-.002v-.004.004c-5.36-.206-9.44 5.39-9.93 6.098l-.08-.12c-2.38-11.108-10.77-6.485-12.16-5.627l-.01-.01-.03.03-.15.09h.01c-11.03 6.81-12.46 19.25-12.59 20.7l-.01.03-.07.05c-.77.2-7.88 2.36-7.99 11.71l-.03.15c-4.57 1.41-8.56 7.4-7.9 12.46.62 4.74 4.46 3.49 4.96 3.3l.05.07 40.13-23.42 3.15-1.83.2-.23zm-7.43-17.38l.048-.03-.043.037-.01-.007z"/><path stroke="#EBF4FB" d="M43.017 136.942l-19.32-8.324m2.493 16.647l-12.88-5.618"/><path fill="#228BDF" d="M112.32 203.673l124.168 54.87 218.51-132.134-120.985-32.05L112.32 203.67z"/><path fill="#FFF" d="M327.188 100.392c27.943-17.262 31.063-50.223 31.325-53.86l.05.092C364.93 8.914 339.9 5.96 337.267 5.754l-.036-.042.02-.007h-.02l-.01-.016-.03.01c-21.53-.83-37.93 21.71-39.91 24.56l-.32-.49C287.37-14.97 253.7 3.65 248.09 7.1l-.07-.004-.12.12c-.394.247-.605.39-.605.39l.05.023c-44.345 27.47-50.08 77.58-50.6 83.39l-.05.13-.275.22c-3.1.83-31.65 9.52-32.11 47.19l-.13.62c-18.37 5.67-34.376 29.83-31.743 50.2 2.47 19.09 17.89 14.05 19.896 13.31l.18.31 161.22-94.35 12.65-7.37.8-.93zm-29.842-70.007l.19-.117-.173.143-.017-.02z"/><path fill="#EBF4FB" d="M345.572 8.225l84.574 36.247-46.228 32.486s-93.275-44.246-73.156-60.987c20.118-16.74 34.81-7.74 34.81-7.74z"/><path fill="#FFF" d="M230.158 240.982l-90.916-38.763L266.355 25.23 275.493.84l94.542 40.316-43.822 113.373-66.384 70.99-29.68 15.45z"/><path fill="#C5D7E5" d="M414.922 137.74c27.943-17.263 31.063-50.224 31.324-53.863l.05.094c6.368-37.71-18.662-40.66-21.294-40.87l-.036-.04h.012-.02l-.012-.01-.03.02c-21.536-.85-37.932 21.7-39.916 24.54l-.324-.48c-9.588-44.74-43.26-26.12-48.87-22.66h-.068l-.12.12c-.394.25-.605.39-.605.39l.048.03c-44.33 27.46-50.06 77.57-50.59 83.39l-.05.13-.27.22c-3.1.84-31.65 9.53-32.11 47.2l-.12.62c-18.37 5.68-34.37 29.84-31.74 50.21 2.47 19.09 17.89 14.06 19.9 13.32l.19.32 161.22-94.35 12.65-7.363.8-.926zM385.08 67.73l.19-.117-.173.143-.018-.026z"/><path stroke="#EBF4FB" d="M284.335 128.662L206.72 95.134m10.016 67.056l-51.742-22.632"/><path fill="#228BDF" d="M386.15 178.64l58.646 25.844 103.202-62.24-57.14-15.092L386.15 178.64z"/><path fill="#FFF" d="M487.634 129.99c13.197-8.132 14.67-23.658 14.795-25.372l.02.044c3.01-17.763-8.82-19.155-10.06-19.252l-.02-.02v-.003h-.01l-.01-.007-.02.006c-10.18-.39-17.92 10.23-18.86 11.57l-.15-.228c-4.53-21.074-20.44-12.303-23.09-10.675h-.03l-.06.055c-.19.116-.29.184-.29.184l.02.01c-20.94 12.936-23.65 36.54-23.9 39.28l-.03.06-.13.102c-1.46.393-14.95 4.487-15.167 22.23l-.06.292c-8.677 2.673-16.236 14.056-14.993 23.65 1.168 8.993 8.45 6.622 9.4 6.273l.086.14 76.14-44.45 5.97-3.47.38-.44zM473.54 97.012l.09-.055-.083.067-.008-.012z"/><path fill="#EBF4FB" d="M496.317 86.574l39.944 17.074-21.83 15.303s-44.05-20.84-34.55-28.72c9.5-7.88 16.44-3.65 16.44-3.65z"/><path fill="#FFF" d="M441.806 196.213l-42.94-18.26 60.036-83.367 4.316-11.488 44.653 18.99-20.69 53.404-31.35 33.44-14.01 7.28z"/><path fill="#C5D7E5" d="M529.07 147.58c13.198-8.13 14.672-23.656 14.796-25.37l.023.044c3-17.763-8.82-19.155-10.06-19.252l-.02-.02v-.003h-.01l-.01-.01h-.02c-10.18-.39-17.92 10.23-18.86 11.57l-.15-.23c-4.53-21.08-20.44-12.31-23.08-10.68h-.04l-.06.05c-.19.11-.28.18-.28.18l.02.01c-20.94 12.93-23.65 36.54-23.9 39.28l-.03.06-.13.1c-1.46.39-14.95 4.48-15.17 22.23l-.06.29c-8.67 2.67-16.23 14.05-14.99 23.65 1.17 8.99 8.45 6.62 9.4 6.27l.084.15 76.15-44.45 5.98-3.47.38-.44zm-14.094-32.975l.09-.055-.082.067-.008-.012z"/><path stroke="#EBF4FB" d="M467.394 143.305l-36.657-15.793m4.73 31.586l-24.438-10.66"/></g></svg>