<svg xmlns="http://www.w3.org/2000/svg" width="427" height="233" viewBox="0 0 427 233"><g fill="none" fill-rule="evenodd"><path fill="#0760A7" d="M115.197 130.163L265.21 74.495l161.496 55.127L252.6 188.087l-137.403-57.924z" opacity=".185"/><path fill="#0760A7" d="M128.468 130.797l123.042-49.73 123.118 49.73L251.51 180.44l-123.042-49.643z"/><path fill="#0769B7" d="M251.538 81.03V.682L128.45 50.35v80.35l123.088-49.67z"/><path fill="#0A73C7" d="M251.538 81.03V.682L374.626 50.35v80.35L251.538 81.03z"/><path fill="#FFF" d="M251.538 100.112v80.346L128.45 130.79V50.443l123.088 49.67z"/><path fill="#C5D7E6" d="M251.538 100.112v80.346l123.088-49.668V50.443l-123.088 49.67z"/><path fill="#ECF4FB" d="M128.468 51.364L251.51 1.634l123.118 49.73-123.118 49.642-123.042-49.642z"/><path fill="#77DF64" d="M243.463 108.25c0-.908-.54-1.792-1.207-1.974-.667-.182-1.207.406-1.207 1.315 0 .91.54 1.8 1.2 1.98.665.18 1.205-.404 1.205-1.312z"/><path fill="#C5D7E5" d="M243.463 113.445c0-.908-.54-1.792-1.207-1.974-.667-.18-1.207.41-1.207 1.32 0 .91.54 1.79 1.2 1.977.665.18 1.205-.406 1.205-1.314zm0 5.195c0-.908-.54-1.792-1.207-1.974-.667-.182-1.207.406-1.207 1.314 0 .91.54 1.792 1.2 1.974.665.182 1.205-.406 1.205-1.314zm0 5.195c0-.908-.54-1.792-1.207-1.974-.667-.18-1.207.41-1.207 1.32 0 .91.54 1.79 1.2 1.977.665.18 1.205-.406 1.205-1.314z"/><path fill="#0760A7" d="M.17 171.61l98.883-36.68 106.45 36.322L90.74 209.774.17 171.61z" opacity=".185"/><path fill="#0760A7" d="M8.92 172.027l81.1-32.767 81.155 32.767-81.155 32.708-81.1-32.708z"/><path fill="#0769B7" d="M90.04 139.236v-52.94L8.908 119.023v52.94l81.134-32.726z"/><path fill="#0A73C7" d="M90.04 139.236v-52.94l81.135 32.726v52.94L90.04 139.235z"/><path fill="#FFF" d="M90.04 151.81v52.937L8.908 172.022v-52.94L90.04 151.81z"/><path fill="#C5D7E6" d="M90.04 151.81v52.937l81.135-32.725v-52.94L90.04 151.81z"/><path fill="#ECF4FB" d="M8.007 118.69l82.015-33.134 82.066 33.134-82.066 33.076L8.007 118.69z"/><path fill="#77DF64" d="M84.718 157.17c0-.598-.356-1.18-.795-1.3-.44-.12-.796.268-.796.866 0 .6.356 1.18.796 1.3.44.12.795-.267.795-.865z"/><path fill="#C5D7E5" d="M84.718 160.593c0-.598-.356-1.18-.795-1.3-.44-.12-.796.268-.796.866 0 .59.356 1.18.796 1.3.44.12.795-.27.795-.87zm0 3.423c0-.598-.356-1.18-.795-1.3-.44-.12-.796.268-.796.866s.356 1.18.796 1.3c.44.12.795-.267.795-.866zm0 3.424c0-.6-.356-1.18-.795-1.3-.44-.12-.796.267-.796.865s.356 1.18.796 1.3c.44.12.795-.268.795-.866z"/><path fill="#0760A7" d="M147.578 206.544l67.19-24.973L287.1 206.3l-77.98 26.23-61.542-25.986z" opacity=".185"/><path fill="#0760A7" d="M153.522 206.828l55.11-22.308 55.142 22.308-55.143 22.27-55.1-22.27z"/><path fill="#0769B7" d="M208.644 184.502V148.46l-55.13 22.28v36.044l55.13-22.282z"/><path fill="#0A73C7" d="M208.644 184.502V148.46l55.13 22.28v36.044l-55.13-22.282z"/><path fill="#FFF" d="M208.644 193.063v36.043l-55.13-22.28V170.78l55.13 22.28z"/><path fill="#C5D7E6" d="M208.644 193.063v36.043l55.13-22.28V170.78l-55.13 22.28z"/><path fill="#ECF4FB" d="M152.18 171.195l56.45-22.852 56.488 22.852-56.487 22.812-56.45-22.812z"/><path fill="#77DF64" d="M205.027 196.713c0-.407-.242-.803-.54-.885-.3-.082-.54.182-.54.59 0 .407.24.804.54.885.298.082.54-.182.54-.59z"/><path fill="#C5D7E5" d="M205.027 199.044c0-.407-.242-.804-.54-.886-.3-.08-.54.183-.54.59 0 .408.24.804.54.886.298.08.54-.183.54-.59zm0 2.33c0-.407-.242-.803-.54-.885-.3-.09-.54.18-.54.59 0 .4.24.8.54.88.298.08.54-.18.54-.59zm0 2.33c0-.407-.242-.803-.54-.885-.3-.09-.54.18-.54.59 0 .4.24.8.54.88.298.08.54-.186.54-.59z"/></g></svg>