<svg xmlns="http://www.w3.org/2000/svg" width="419" height="306" viewBox="0 0 419 306"><g fill="none" fill-rule="evenodd"><path fill="#0760A7" d="M.253 221.436l209.052-84.502 209.185 84.502-209.185 84.353L.253 221.433z" opacity=".168"/><path fill="#0760A7" d="M34.862 221.424l174.454-70.517 174.564 70.517-174.564 70.392-174.454-70.392z"/><path fill="#0769B7" d="M209.357 150.853V36.92l-174.52 70.43v113.932l174.52-70.43z"/><path fill="#0A73C7" d="M209.357 150.853V36.92l174.52 70.43v113.932l-174.52-70.43z"/><path fill="#FFF" d="M209.357 177.91v113.933l-174.52-70.43v-113.93l174.52 70.428z"/><path fill="#C5D7E6" d="M209.357 177.91v113.933l174.52-70.43v-113.93l-174.52 70.428z"/><path fill="#ECF4FB" d="M34.862 70.942L209.316.426 383.88 70.942l-174.564 70.393L34.862 70.942z"/><path fill="#77DF64" d="M197.908 189.45c0-1.286-.766-2.54-1.712-2.798-.945-.258-1.71.577-1.71 1.864 0 1.288.765 2.54 1.71 2.8.946.257 1.712-.577 1.712-1.865z"/><path fill="#C5D7E5" d="M197.908 196.818c0-1.288-.766-2.54-1.712-2.8-.945-.257-1.71.577-1.71 1.865s.765 2.54 1.71 2.8c.946.257 1.712-.578 1.712-1.865zm0 7.366c0-1.288-.766-2.54-1.712-2.8-.945-.257-1.71.578-1.71 1.865s.765 2.54 1.71 2.796c.946.258 1.712-.576 1.712-1.864zm0 7.366c0-1.287-.766-2.54-1.712-2.798-.945-.258-1.71.576-1.71 1.864 0 1.287.765 2.54 1.71 2.8.946.257 1.712-.578 1.712-1.865z"/></g></svg>