<?xml version="1.0" encoding="utf-8"?>
<!-- Generator: Adobe Illustrator 16.0.0, SVG Export Plug-In . SVG Version: 6.00 Build 0)  -->
<!DOCTYPE svg PUBLIC "-//W3C//DTD SVG 1.1//EN" "http://www.w3.org/Graphics/SVG/1.1/DTD/svg11.dtd">
<svg version="1.1" id="Layer_1" xmlns="http://www.w3.org/2000/svg" xmlns:xlink="http://www.w3.org/1999/xlink" x="0px" y="0px"
	 width="45.263px" height="45.263px" viewBox="0 0 45.263 45.263" enable-background="new 0 0 45.263 45.263" xml:space="preserve">
<g>
	<path fill="#FFFFFF" d="M23.748,20.748c0,1.65-1.35,3-3,3H5.436c-1.65,0-3-1.35-3-3V5.435c0-1.65,1.35-3,3-3h15.312
		c1.65,0,3,1.35,3,3V20.748z"/>
	<path fill="none" stroke="#000000" stroke-width="0.5" stroke-miterlimit="10" d="M23.748,20.748c0,1.65-1.35,3-3,3H5.436
		c-1.65,0-3-1.35-3-3V5.435c0-1.65,1.35-3,3-3h15.312c1.65,0,3,1.35,3,3V20.748z"/>
</g>
<g>
	<line fill="none" stroke="#000000" stroke-width="0.5" stroke-miterlimit="10" x1="2.436" y1="10.58" x2="0" y2="10.58"/>
	<line fill="none" stroke="#000000" stroke-width="0.5" stroke-miterlimit="10" x1="2.436" y1="15.603" x2="0" y2="15.603"/>
	<line fill="none" stroke="#000000" stroke-width="0.5" stroke-miterlimit="10" x1="2.436" y1="13.091" x2="0" y2="13.091"/>
</g>
<g>
	<line fill="none" stroke="#000000" stroke-width="0.5" stroke-miterlimit="10" x1="26.183" y1="10.58" x2="23.748" y2="10.58"/>
	<line fill="none" stroke="#000000" stroke-width="0.5" stroke-miterlimit="10" x1="26.183" y1="15.603" x2="23.748" y2="15.603"/>
	<line fill="none" stroke="#000000" stroke-width="0.5" stroke-miterlimit="10" x1="26.183" y1="13.091" x2="23.748" y2="13.091"/>
</g>
<g>
	<line fill="none" stroke="#000000" stroke-width="0.5" stroke-miterlimit="10" x1="15.603" y1="2.435" x2="15.603" y2="0"/>
	<line fill="none" stroke="#000000" stroke-width="0.5" stroke-miterlimit="10" x1="10.58" y1="2.435" x2="10.58" y2="0"/>
	<line fill="none" stroke="#000000" stroke-width="0.5" stroke-miterlimit="10" x1="13.091" y1="2.435" x2="13.091" y2="0"/>
</g>
<g>
	<line fill="none" stroke="#000000" stroke-width="0.5" stroke-miterlimit="10" x1="15.603" y1="26.183" x2="15.603" y2="23.748"/>
	<line fill="none" stroke="#000000" stroke-width="0.5" stroke-miterlimit="10" x1="10.58" y1="26.183" x2="10.58" y2="23.748"/>
	<line fill="none" stroke="#000000" stroke-width="0.5" stroke-miterlimit="10" x1="13.091" y1="26.183" x2="13.091" y2="23.748"/>
</g>
<g>
	<path fill="#FFFFFF" d="M17.597,15.597c0,1.1-0.9,2-2,2h-5.011c-1.1,0-2-0.9-2-2v-5.012c0-1.1,0.9-2,2-2h5.011c1.1,0,2,0.9,2,2
		V15.597z"/>
	<path fill="none" stroke="#000000" stroke-width="0.5" stroke-miterlimit="10" d="M17.597,15.597c0,1.1-0.9,2-2,2h-5.011
		c-1.1,0-2-0.9-2-2v-5.012c0-1.1,0.9-2,2-2h5.011c1.1,0,2,0.9,2,2V15.597z"/>
</g>
</svg>
