<?xml version="1.0" encoding="utf-8"?>
<!-- Generator: Adobe Illustrator 16.0.0, SVG Export Plug-In . SVG Version: 6.00 Build 0)  -->
<!DOCTYPE svg PUBLIC "-//W3C//DTD SVG 1.1//EN" "http://www.w3.org/Graphics/SVG/1.1/DTD/svg11.dtd">
<svg version="1.1" id="Layer_1" xmlns="http://www.w3.org/2000/svg" xmlns:xlink="http://www.w3.org/1999/xlink" x="0px" y="0px"
	 width="189.5px" height="35.5px" viewBox="0 0 189.5 35.5" enable-background="new 0 0 189.5 35.5" xml:space="preserve">
<g>
	<path fill="#0A9600" d="M69.974,59.877V70.5h-3.881V59.877h-3.921v-3.381h11.723v3.381H69.974z"/>
	<path fill="#0A9600" d="M82.954,66.279h-6.161c0.12,1.16,0.8,1.68,1.78,1.68c0.92,0,1.681-0.2,2.721-0.74l1.38,2.301
		c-1.3,0.76-2.641,1.2-4.28,1.2c-3.161,0-4.901-2.241-4.901-5.462c0-3.62,2.04-5.48,4.801-5.48c2.881,0,4.682,1.9,4.682,5.801
		C82.975,65.879,82.975,66.099,82.954,66.279z M78.193,62.438c-0.82,0-1.28,0.561-1.4,1.601h3.001
		C79.613,62.979,79.253,62.438,78.193,62.438z"/>
	<path fill="#0A9600" d="M89.653,70.72c-3.08,0-4.921-1.96-4.921-5.501c0-3.221,1.641-5.441,5.001-5.441
		c1.98,0,3.121,0.92,4.041,2.4l-2.48,1.881c-0.5-0.921-0.841-1.361-1.62-1.361c-0.921,0-1.381,0.921-1.381,2.581
		c0,1.661,0.5,2.521,1.48,2.521c0.68,0,1.16-0.38,1.82-1.36l2.28,1.78C92.654,70.02,91.514,70.72,89.653,70.72z"/>
	<path fill="#0A9600" d="M101.934,70.5v-5.962c0-1.36-0.46-1.72-1.2-1.72c-0.761,0-1.221,0.359-1.221,1.68V70.5h-3.601V57.357
		l3.601-1.441v4.781c0.66-0.5,1.4-0.92,2.641-0.92c2.301,0,3.401,1.54,3.401,4.301V70.5H101.934z"/>
	<path d="M114.174,70.72c-4.161,0-6.382-3.081-6.382-7.222c0-4.501,2.641-7.222,6.401-7.222c3.441,0,4.802,1.48,5.762,4.121
		l-3.521,1.38c-0.501-1.3-0.98-2.12-2.261-2.12c-1.62,0-2.32,1.62-2.32,3.841c0,2.141,0.68,3.841,2.36,3.841
		c1.22,0,1.74-0.66,2.5-1.98l3.281,1.74C119.055,68.939,117.494,70.72,114.174,70.72z"/>
	<path d="M128.853,63.958c-0.46-0.5-0.979-0.88-1.68-0.88c-0.881,0-1.421,0.42-1.421,1.7V70.5h-3.601V59.997h3.601v0.761
		c0.62-0.601,1.32-0.98,2.241-0.98c0.76,0,1.28,0.18,1.7,0.439L128.853,63.958z"/>
	<path d="M137.413,70.5v-0.701c-0.641,0.5-1.4,0.921-2.62,0.921c-2.301,0-3.401-1.54-3.401-4.302v-6.421h3.621v5.962
		c0,1.359,0.46,1.72,1.2,1.72s1.2-0.36,1.2-1.681v-6.001h3.621V70.5H137.413z"/>
	<path d="M149.653,70.5v-5.962c0-1.36-0.46-1.72-1.2-1.72c-0.761,0-1.221,0.359-1.221,1.68V70.5h-3.601V59.997h3.601v0.7
		c0.66-0.5,1.4-0.92,2.641-0.92c2.301,0,3.401,1.54,3.401,4.301V70.5H149.653z"/>
	<path d="M160.292,70.72c-3.08,0-4.921-1.96-4.921-5.501c0-3.221,1.641-5.441,5.001-5.441c1.98,0,3.121,0.92,4.041,2.4l-2.48,1.881
		c-0.5-0.921-0.841-1.361-1.62-1.361c-0.921,0-1.381,0.921-1.381,2.581c0,1.661,0.5,2.521,1.48,2.521c0.68,0,1.16-0.38,1.82-1.36
		l2.28,1.78C163.293,70.02,162.152,70.72,160.292,70.72z"/>
	<path d="M172.572,70.5v-5.962c0-1.36-0.46-1.72-1.2-1.72c-0.761,0-1.221,0.359-1.221,1.68V70.5h-3.601V57.357l3.601-1.441v4.781
		c0.66-0.5,1.4-0.92,2.641-0.92c2.301,0,3.401,1.54,3.401,4.301V70.5H172.572z"/>
</g>
<g>
	<polygon fill="#0A9600" points="6,50.5 6,58.5 14,58.5 14,74.5 22,74.5 22,58.5 30,58.5 30,50.5 	"/>
	<polygon fill="#0A9600" points="38,66.5 38,58.5 30,58.5 30,74.5 54,74.5 54,66.5 	"/>
	<rect x="38" y="50.5" fill="#0A9600" width="16" height="8"/>
</g>
<path fill-rule="evenodd" clip-rule="evenodd" fill="#231F20" d="M91.554,11.742c0,3.534-0.354,14.488-0.354,14.488
	c0,2.121,0.707,3.062,2.709,3.062v0.943h-7.892v-0.943c2.003,0,3.062-0.941,3.062-3.062l0.706-17.904
	c-0.588-1.414-1.178-1.885-2.709-2.002V5.499h6.008l6.361,16.728l6.479-16.728h5.418v0.825c-1.531,0-2.355,0.707-2.355,2.356
	l0.707,17.314c0,2.592,0.471,3.299,2.591,3.299v0.943h-9.07v-0.943c1.768,0,2.592-0.588,2.475-3.299c0,0-0.354-12.132-0.472-14.252
	l-4.358,12.016c-0.589,1.531-1.178,3.297-1.649,5.182l-1.413,0.119c-0.354-1.297-1.296-3.652-1.296-3.652
	S92.85,15.158,91.554,11.742L91.554,11.742z"/>
<path fill-rule="evenodd" clip-rule="evenodd" fill="#231F20" d="M84.133,30.354c-0.472-0.117-0.942-0.117-1.413-0.117
	c-0.943,0-2.592,0.471-4.594,0.471c-7.657,0-13.312-4.594-13.312-13.076c0-7.185,5.301-12.721,13.429-12.721
	c1.885,0,4.005,0.353,5.771,1.06c0.354-0.354,0.472-0.589,0.824-0.942h0.707c-0.117,1.296-0.588,5.536-0.588,5.536h-0.707
	c-0.472-2.474-1.768-4.123-5.891-4.123c-4.947,0-9.423,3.887-9.423,11.073c0,8.128,4.594,11.662,9.659,11.662
	c3.298,0,5.301-1.885,6.596-4.24l0.825,0.354L84.133,30.354L84.133,30.354z"/>
<path fill-rule="evenodd" clip-rule="evenodd" fill="#231F20" d="M61.87,10.093h-0.825c-0.117-2.238-0.824-2.945-2.591-2.945h-3.416
	v18.495c0,3.062,0.589,3.65,2.591,3.65v0.943h-8.835v-0.943c2.004,0,2.592-0.588,2.592-3.77V7.148H47.97
	c-2.238,0-2.592,0.589-3.18,2.945h-0.824l0.588-5.3l0.59,0.118c0.234,0.589,0.706,0.589,2.119,0.589h11.427
	c2.12,0,2.591,0,3.062-0.707h0.707L61.87,10.093L61.87,10.093z"/>
<path fill-rule="evenodd" clip-rule="evenodd" fill="#231F20" d="M36.897,30.824c-1.648,0-2.945-0.234-3.887-0.588
	c-0.943-0.236-1.649-0.59-2.003-0.826c-0.472,0.473-0.825,1.061-0.825,1.061l-0.706-0.234l0.589-5.537l0.824,0.117
	c0.472,2.592,2.238,4.477,5.891,4.477c2.826,0,4.711-2.355,4.711-4.947c0-2.119-0.824-3.18-3.651-5.3
	c-0.942-0.589-1.767-1.061-2.474-1.649c-2.592-1.649-4.24-3.534-4.24-6.596c0-3.534,2.944-5.89,6.832-5.89
	c2.238,0,3.651,0.707,4.123,0.942l0.824-0.942l0.588,0.118l-0.588,5.065l-0.824-0.118c0-2.356-1.414-3.416-3.77-3.416
	c-2.238,0-3.888,1.178-3.888,3.416c0,2.002,1.531,3.298,3.298,4.476c0.943,0.589,1.649,1.061,2.355,1.531
	c4.123,2.945,5.066,4.83,5.066,7.656C45.144,27.762,41.962,30.824,36.897,30.824L36.897,30.824z"/>
<path fill-rule="evenodd" clip-rule="evenodd" fill="#231F20" d="M23.47,10.093h-0.943c0-2.12-0.941-2.945-2.826-2.945h-5.301v9.306
	h3.416c1.767,0,2.12-0.942,2.355-2.474h0.824v6.596h-0.824c-0.235-1.766-0.589-2.473-2.474-2.473h-3.298v7.891
	c0,2.945,0.706,3.299,2.591,3.299v0.943H8.038v-0.943c2.238,0,2.592-0.588,2.592-3.299V8.68c0-1.649-0.707-2.356-2.592-2.356V5.499
	h12.25c2.121,0,2.592-0.118,2.945-0.825h0.824L23.47,10.093L23.47,10.093z"/>
<path fill-rule="evenodd" clip-rule="evenodd" fill="#231F20" d="M150.568,11.506v14.136c0,3.062,0.707,3.65,2.592,3.65v0.943h-13.9
	v-0.943c1.061,0,2.003-0.354,2.003-1.061c0-0.471-0.118-1.295-0.354-2.119l-1.061-3.416h-7.773
	c-0.118,0.471-1.531,4.357-1.531,5.418c0,0.943,1.06,1.178,1.767,1.178v0.943h-6.479v-0.943c1.178,0,2.12-0.117,2.944-2.592
	l6.008-19.2c-0.354-0.825-0.824-1.06-1.649-1.178V5.499h5.301l6.361,20.144c0.589,2.119,1.178,3.18,2.12,3.65
	c1.413-0.471,1.767-0.941,1.767-3.65V8.68c-1.061-1.414-1.178-2.356-3.181-2.356V5.499h6.008l9.895,16.845V9.504
	c0-2.591-0.589-3.18-2.591-3.18V5.499h13.192v0.825c-0.824,0-1.531,0.353-1.531,1.178c0,0.589,0.235,1.178,0.471,1.885l3.77,8.128
	l3.652-7.893c0.588-1.06,0.706-1.649,0.706-2.238c0-0.707-0.471-1.06-1.531-1.06V5.499h6.243v0.825
	c-1.531,0-2.474,1.413-3.181,3.062l-4.829,9.895v6.479c0,2.826,0.707,3.533,2.592,3.533v0.943h-8.953v-0.943
	c1.885,0,2.592-0.707,2.592-3.533v-5.537l-5.183-10.955c-0.942-2.12-1.296-2.591-1.885-2.944c-1.178,0.471-1.531,1.295-1.531,3.18
	v18.141c0,0,0.117,1.414,0.235,3.062l-1.531,0.117L150.568,11.506L150.568,11.506z M135.844,10.329l-3.298,10.718h6.832
	L135.844,10.329L135.844,10.329z"/>
<path fill-rule="evenodd" clip-rule="evenodd" fill="#231F20" d="M121.237,21.047c0,0-1.06,0-1.767,0v5.066
	c0,2.592,0.707,3.18,2.71,3.18v0.943h-9.07v-0.943c1.885,0,2.591-0.707,2.591-3.299V9.386c0-2.591-0.706-3.062-2.591-3.062V5.499
	h6.832c6.596,0,10.483,2.002,10.483,7.421C130.426,18.574,125.714,21.047,121.237,21.047L121.237,21.047z M120.06,7.148h-0.589
	v12.133h1.061c3.887,0,5.89-1.767,5.89-6.243C126.421,8.562,124.653,7.148,120.06,7.148L120.06,7.148z"/>
<path fill-rule="evenodd" clip-rule="evenodd" fill="#231F20" d="M80.128,25.523c-4.477,0-7.539-3.18-7.539-7.774
	c0-4.358,3.181-7.774,7.539-7.774c4.24,0,7.421,3.298,7.421,7.774C87.549,22.107,84.251,25.523,80.128,25.523L80.128,25.523z
	 M80.128,11.389c-3.062,0-4.123,2.945-4.123,6.361c0,3.18,0.942,6.362,4.123,6.362c3.062,0,4.005-3.182,4.005-6.48
	C84.133,14.451,82.955,11.389,80.128,11.389L80.128,11.389z"/>
<path fill-rule="evenodd" clip-rule="evenodd" fill="#231F20" d="M28.299,24.111v-0.826c1.178,0,1.413-0.354,1.413-0.705
	c0-0.473-0.117-0.826-0.235-1.18c0,0-0.235-0.941-0.472-1.648h-4.594l-0.471,1.531c-0.117,0.354-0.236,0.707-0.236,1.178
	s0.472,0.824,1.179,0.824v0.826h-4.595v-0.826c1.179,0,1.65-0.354,2.121-1.648l3.533-10.602c-0.117-0.471-0.471-0.824-1.178-0.824
	V9.386h3.77c3.062,8.952,3.887,11.309,3.887,11.309c0.59,2.002,1.178,2.59,2.121,2.59v0.826H28.299L28.299,24.111z M26.649,12.684
	l-1.767,5.772h3.651L26.649,12.684L26.649,12.684z"/>
</svg>
