<?xml version="1.0" encoding="utf-8"?>
<!-- Generator: Adobe Illustrator 16.0.0, SVG Export Plug-In . SVG Version: 6.00 Build 0)  -->
<!DOCTYPE svg PUBLIC "-//W3C//DTD SVG 1.1//EN" "http://www.w3.org/Graphics/SVG/1.1/DTD/svg11.dtd">
<svg version="1.1" id="Layer_1" xmlns="http://www.w3.org/2000/svg" xmlns:xlink="http://www.w3.org/1999/xlink" x="0px" y="0px"
	 width="45.263px" height="45.263px" viewBox="0 0 45.263 45.263" enable-background="new 0 0 45.263 45.263" xml:space="preserve">
<g>
	<path fill="#FFFFFF" d="M13.046,4.598c-0.55,0-1-0.45-1-1V3.435c0-0.55-0.45-1-1-1h-7.61c-0.55,0-1,0.45-1,1v19.312
		c0,0.55,0.45,1,1,1h1.743c0.55,0,1.45,0,2,0h3.868c0.55,0,1.45,0,2,0h11.625c0.55,0,1-0.45,1-1V5.598c0-0.55-0.45-1-1-1H13.046z"/>
	<path fill="none" stroke="#000000" stroke-width="0.5" stroke-miterlimit="10" d="M13.046,4.598c-0.55,0-1-0.45-1-1V3.435
		c0-0.55-0.45-1-1-1h-7.61c-0.55,0-1,0.45-1,1v19.312c0,0.55,0.45,1,1,1h1.743c0.55,0,1.45,0,2,0h3.868c0.55,0,1.45,0,2,0h11.625
		c0.55,0,1-0.45,1-1V5.598c0-0.55-0.45-1-1-1H13.046z"/>
</g>
</svg>
