<?xml version="1.0" encoding="utf-8"?>
<!-- Generator: Adobe Illustrator 19.1.0, SVG Export Plug-In . SVG Version: 6.00 Build 0)  -->
<svg version="1.1" xmlns="http://www.w3.org/2000/svg" xmlns:xlink="http://www.w3.org/1999/xlink" x="0px" y="0px"
	 viewBox="0 0 100 100" style="enable-background:new 0 0 100 100;" xml:space="preserve">
<style type="text/css">
	.st0{display:none;}
	.st1{display:inline;}
	.st2{fill:none;stroke:#FFFFFF;stroke-miterlimit:10;}
	.st3{stroke:#FFFFFF;stroke-miterlimit:10;}
	.st4{display:none;fill:none;stroke:#FFFFFF;stroke-miterlimit:10;}
	.st5{display:inline;fill:none;stroke:#6F0F10;stroke-linecap:round;stroke-miterlimit:10;}
	.st6{display:inline;fill:none;stroke:#FFFFFF;stroke-miterlimit:10;}
	.st7{display:inline;fill:none;stroke:#FFFFFF;stroke-linecap:round;stroke-miterlimit:10;}
	.st8{display:inline;fill:none;stroke:#000000;stroke-width:3;stroke-linecap:round;stroke-miterlimit:10;}
</style>
<g id="Layer_3" class="st0">
	<rect x="-90.3" y="-63.7" class="st1" width="263" height="224.7"/>
</g>
<g id="Layer_5">
	<g>
		<path class="st2" d="M34.3,63.4c-1.1,0-2-0.9-2-2V39.2c0-1.1,0.9-2,2-2h28.5c1.1,0,2,0.9,2,2v22.3c0,1.1-0.9,2-2,2H34.3z"/>
	</g>
	<circle class="st3" cx="46" cy="64.9" r="1.6"/>
	<g>
		<path d="M63,74.5c0,1.1-0.9,2-2,2H45c-1.1,0-2-0.9-2-2V50.4c0-1.1,0.9-2,2-2h16c1.1,0,2,0.9,2,2V74.5z"/>
		<path class="st2" d="M63,74.5c0,1.1-0.9,2-2,2H45c-1.1,0-2-0.9-2-2V50.4c0-1.1,0.9-2,2-2h16c1.1,0,2,0.9,2,2V74.5z"/>
	</g>
	<g>
		<path d="M69.5,51.9c0,1.1-0.9,2-2,2H49.8c-1.1,0-2-0.9-2-2v-6.4c0-1.1,0.9-2,2-2h17.8c1.1,0,2,0.9,2,2V51.9z"/>
		<path class="st2" d="M69.5,51.9c0,1.1-0.9,2-2,2H49.8c-1.1,0-2-0.9-2-2v-6.4c0-1.1,0.9-2,2-2h17.8c1.1,0,2,0.9,2,2V51.9z"/>
	</g>
	<circle class="st3" cx="53" cy="73.1" r="1.6"/>
	<circle class="st3" cx="65.9" cy="48.7" r="1.6"/>
	<line class="st4" x1="35.3" y1="40.5" x2="62" y2="40.5"/>
</g>
<g id="Layer_1" class="st0">
	<path class="st5" d="M34.6,68.6c-3.9-3.9-6.4-9.4-6.4-15.4c0-12,9.8-21.8,21.8-21.8s21.8,9.8,21.8,21.8c0,6-2.4,11.5-6.4,15.4"/>
	<path class="st5" d="M40.8,62.3C38.4,60,37,56.8,37,53.2c0-7.2,5.8-13,13-13"/>
	<path class="st5" d="M59.2,44c2.4,2.4,3.8,5.6,3.8,9.2c0,3.6-1.5,6.8-3.8,9.2"/>
	<circle class="st5" cx="50" cy="53.2" r="4.5"/>
	<line class="st5" x1="51.7" y1="49" x2="54.9" y2="41.2"/>
	<path class="st5" d="M40.8,62.4"/>
	<path class="st5" d="M40.8,62.4"/>
</g>
<g id="Layer_4" class="st0">
	<circle class="st6" cx="56" cy="47.1" r="3.4"/>
	<line class="st7" x1="38.1" y1="47.1" x2="48.9" y2="47.1"/>
	<line class="st7" x1="62.5" y1="47.1" x2="68.4" y2="47.1"/>
	<circle class="st6" cx="45.2" cy="55.1" r="3.4"/>
	<line class="st7" x1="31" y1="55.1" x2="39.2" y2="55.1"/>
	<line class="st7" x1="51.2" y1="55.1" x2="60.8" y2="55.1"/>
</g>
<g id="Layer_2" class="st0">
	<line class="st8" x1="-49.9" y1="-77.6" x2="-99.9" y2="-27.6"/>
	<line class="st8" x1="-49.9" y1="-77.6" x2="16.3" y2="-11.3"/>
</g>
</svg>
