<?xml version="1.0" encoding="utf-8"?>
<!-- Generator: Adobe Illustrator 19.1.0, SVG Export Plug-In . SVG Version: 6.00 Build 0)  -->
<svg version="1.1" xmlns="http://www.w3.org/2000/svg" xmlns:xlink="http://www.w3.org/1999/xlink" x="0px" y="0px"
	 viewBox="0 0 100 100" style="enable-background:new 0 0 100 100;" xml:space="preserve">
<style type="text/css">
	.st0{display:none;}
	.st1{display:inline;}
	.st2{fill:none;stroke:#FFFFFF;stroke-linecap:round;stroke-miterlimit:10;}
	.st3{display:inline;fill:none;stroke:#000000;stroke-width:3;stroke-linecap:round;stroke-miterlimit:10;}
</style>
<g id="Layer_3" class="st0">
	<rect x="-90.3" y="-63.7" class="st1" width="263" height="224.7"/>
</g>
<g id="Layer_1">
	<path class="st2" d="M34.6,68.6c-3.9-3.9-6.4-9.4-6.4-15.4c0-12,9.8-21.8,21.8-21.8s21.8,9.8,21.8,21.8c0,6-2.4,11.5-6.4,15.4"/>
	<path class="st2" d="M40.8,62.3C38.4,60,37,56.8,37,53.2c0-7.2,5.8-13,13-13"/>
	<path class="st2" d="M59.2,44c2.4,2.4,3.8,5.6,3.8,9.2c0,3.6-1.5,6.8-3.8,9.2"/>
	<circle class="st2" cx="50" cy="53.2" r="4.5"/>
	<line class="st2" x1="51.7" y1="49" x2="54.9" y2="41.2"/>
	<path class="st2" d="M40.8,62.4"/>
	<path class="st2" d="M40.8,62.4"/>
</g>
<g id="Layer_2" class="st0">
	<line class="st3" x1="-49.9" y1="-77.6" x2="-99.9" y2="-27.6"/>
	<line class="st3" x1="-49.9" y1="-77.6" x2="16.3" y2="-11.3"/>
</g>
</svg>
