<?xml version="1.0" encoding="utf-8"?>
<!-- Generator: Adobe Illustrator 16.0.0, SVG Export Plug-In . SVG Version: 6.00 Build 0)  -->
<!DOCTYPE svg PUBLIC "-//W3C//DTD SVG 1.1//EN" "http://www.w3.org/Graphics/SVG/1.1/DTD/svg11.dtd">
<svg version="1.1" id="Layer_1" xmlns="http://www.w3.org/2000/svg" xmlns:xlink="http://www.w3.org/1999/xlink" x="0px" y="0px"
	 width="45.263px" height="45.263px" viewBox="0 0 45.263 45.263" enable-background="new 0 0 45.263 45.263" xml:space="preserve">
<g>
	<path fill="#FFFFFF" d="M16.421,9.598c-0.55,0-1-0.45-1-1v-6c0-0.55-0.45-1-1-1h-6.86c-0.55,0-1,0.45-1,1v6c0,0.55-0.45,1-1,1
		H3.436c-0.55,0-1,0.45-1,1v11.417c0,0.55,0.45,1,1,1h15.11c0.55,0,1-0.45,1-1V10.598c0-0.55-0.45-1-1-1H16.421z"/>
	<path fill="none" stroke="#000000" stroke-width="0.5" stroke-miterlimit="10" d="M16.421,9.598c-0.55,0-1-0.45-1-1v-6
		c0-0.55-0.45-1-1-1h-6.86c-0.55,0-1,0.45-1,1v6c0,0.55-0.45,1-1,1H3.436c-0.55,0-1,0.45-1,1v11.417c0,0.55,0.45,1,1,1h15.11
		c0.55,0,1-0.45,1-1V10.598c0-0.55-0.45-1-1-1H16.421z"/>
</g>
<g>
	<g>
		<path fill="#FFFFFF" d="M11.952,9.473c0.55,0,1-0.45,1-1V4.911c0-0.55-0.45-1-1-1H10.03c-0.55,0-1,0.45-1,1v3.562
			c0,0.55,0.45,1,1,1H11.952z"/>
		<path fill="none" stroke="#000000" stroke-width="0.5" stroke-miterlimit="10" d="M11.952,9.473c0.55,0,1-0.45,1-1V4.911
			c0-0.55-0.45-1-1-1H10.03c-0.55,0-1,0.45-1,1v3.562c0,0.55,0.45,1,1,1H11.952z"/>
	</g>
	<g>
		<path fill="#FFFFFF" d="M10.03,13.723c-0.55,0-1,0.45-1,1v2.833c0,0.55,0.45,1,1,1h1.922c0.55,0,1-0.45,1-1v-2.833
			c0-0.55-0.45-1-1-1H10.03z"/>
		<path fill="none" stroke="#000000" stroke-width="0.5" stroke-miterlimit="10" d="M10.03,13.723c-0.55,0-1,0.45-1,1v2.833
			c0,0.55,0.45,1,1,1h1.922c0.55,0,1-0.45,1-1v-2.833c0-0.55-0.45-1-1-1H10.03z"/>
	</g>
</g>
</svg>
