<?xml version="1.0" encoding="utf-8"?>
<!-- Generator: Adobe Illustrator 16.0.0, SVG Export Plug-In . SVG Version: 6.00 Build 0)  -->
<!DOCTYPE svg PUBLIC "-//W3C//DTD SVG 1.1//EN" "http://www.w3.org/Graphics/SVG/1.1/DTD/svg11.dtd">
<svg version="1.1" id="Layer_1" xmlns="http://www.w3.org/2000/svg" xmlns:xlink="http://www.w3.org/1999/xlink" x="0px" y="0px"
	 width="170.193px" height="43px" viewBox="0 0 170.193 43" enable-background="new 0 0 170.193 43" xml:space="preserve">
<g>
	<path fill="#0A9600" d="M63.974,59.877V70.5h-3.881V59.877h-3.921v-3.381h11.723v3.381H63.974z"/>
	<path fill="#0A9600" d="M76.954,66.279h-6.161c0.12,1.16,0.8,1.68,1.78,1.68c0.92,0,1.681-0.2,2.721-0.74l1.38,2.301
		c-1.3,0.76-2.641,1.2-4.28,1.2c-3.161,0-4.901-2.241-4.901-5.462c0-3.62,2.04-5.48,4.801-5.48c2.881,0,4.682,1.9,4.682,5.801
		C76.975,65.879,76.975,66.099,76.954,66.279z M72.193,62.438c-0.82,0-1.28,0.561-1.4,1.601h3.001
		C73.613,62.979,73.253,62.438,72.193,62.438z"/>
	<path fill="#0A9600" d="M83.653,70.72c-3.08,0-4.921-1.96-4.921-5.501c0-3.221,1.641-5.441,5.001-5.441
		c1.98,0,3.121,0.92,4.041,2.4l-2.48,1.881c-0.5-0.921-0.841-1.361-1.62-1.361c-0.921,0-1.381,0.921-1.381,2.581
		c0,1.661,0.5,2.521,1.48,2.521c0.68,0,1.16-0.38,1.82-1.36l2.28,1.78C86.654,70.02,85.514,70.72,83.653,70.72z"/>
	<path fill="#0A9600" d="M95.934,70.5v-5.962c0-1.36-0.46-1.72-1.2-1.72c-0.761,0-1.221,0.359-1.221,1.68V70.5h-3.601V57.357
		l3.601-1.441v4.781c0.66-0.5,1.4-0.92,2.641-0.92c2.301,0,3.401,1.54,3.401,4.301V70.5H95.934z"/>
	<path d="M108.174,70.72c-4.161,0-6.382-3.081-6.382-7.222c0-4.501,2.641-7.222,6.401-7.222c3.441,0,4.802,1.48,5.762,4.121
		l-3.521,1.38c-0.501-1.3-0.98-2.12-2.261-2.12c-1.62,0-2.32,1.62-2.32,3.841c0,2.141,0.68,3.841,2.36,3.841
		c1.22,0,1.74-0.66,2.5-1.98l3.281,1.74C113.055,68.939,111.494,70.72,108.174,70.72z"/>
	<path d="M122.853,63.958c-0.46-0.5-0.979-0.88-1.68-0.88c-0.881,0-1.421,0.42-1.421,1.7V70.5h-3.601V59.997h3.601v0.761
		c0.62-0.601,1.32-0.98,2.241-0.98c0.76,0,1.28,0.18,1.7,0.439L122.853,63.958z"/>
	<path d="M131.413,70.5v-0.701c-0.641,0.5-1.4,0.921-2.62,0.921c-2.301,0-3.401-1.54-3.401-4.302v-6.421h3.621v5.962
		c0,1.359,0.46,1.72,1.2,1.72s1.2-0.36,1.2-1.681v-6.001h3.621V70.5H131.413z"/>
	<path d="M143.653,70.5v-5.962c0-1.36-0.46-1.72-1.2-1.72c-0.761,0-1.221,0.359-1.221,1.68V70.5h-3.601V59.997h3.601v0.7
		c0.66-0.5,1.4-0.92,2.641-0.92c2.301,0,3.401,1.54,3.401,4.301V70.5H143.653z"/>
	<path d="M154.292,70.72c-3.08,0-4.921-1.96-4.921-5.501c0-3.221,1.641-5.441,5.001-5.441c1.98,0,3.121,0.92,4.041,2.4l-2.48,1.881
		c-0.5-0.921-0.841-1.361-1.62-1.361c-0.921,0-1.381,0.921-1.381,2.581c0,1.661,0.5,2.521,1.48,2.521c0.68,0,1.16-0.38,1.82-1.36
		l2.28,1.78C157.293,70.02,156.152,70.72,154.292,70.72z"/>
	<path d="M166.572,70.5v-5.962c0-1.36-0.46-1.72-1.2-1.72c-0.761,0-1.221,0.359-1.221,1.68V70.5h-3.601V57.357l3.601-1.441v4.781
		c0.66-0.5,1.4-0.92,2.641-0.92c2.301,0,3.401,1.54,3.401,4.301V70.5H166.572z"/>
</g>
<g>
	<polygon fill="#0A9600" points="0,50.5 0,58.5 8,58.5 8,74.5 16,74.5 16,58.5 24,58.5 24,50.5 	"/>
	<polygon fill="#0A9600" points="32,66.5 32,58.5 24,58.5 24,74.5 48,74.5 48,66.5 	"/>
	<rect x="32" y="50.5" fill="#0A9600" width="16" height="8"/>
</g>
<path fill-rule="evenodd" clip-rule="evenodd" fill="#231F20" d="M85.554,94.398c0,3.534-0.354,14.488-0.354,14.488
	c0,2.121,0.707,3.062,2.709,3.062v0.943h-7.892v-0.943c2.003,0,3.062-0.941,3.062-3.062l0.706-17.904
	c-0.588-1.413-1.178-1.885-2.709-2.002v-0.824h6.008l6.361,16.727l6.479-16.727h5.418v0.824c-1.531,0-2.355,0.707-2.355,2.355
	l0.707,17.314c0,2.592,0.471,3.299,2.591,3.299v0.943h-9.07v-0.943c1.768,0,2.592-0.588,2.475-3.299c0,0-0.354-12.131-0.472-14.252
	l-4.358,12.016c-0.589,1.531-1.178,3.297-1.649,5.182l-1.413,0.119c-0.354-1.297-1.296-3.652-1.296-3.652
	S86.85,97.814,85.554,94.398L85.554,94.398z"/>
<path fill-rule="evenodd" clip-rule="evenodd" fill="#231F20" d="M78.133,113.01c-0.472-0.117-0.942-0.117-1.413-0.117
	c-0.943,0-2.592,0.471-4.594,0.471c-7.657,0-13.312-4.594-13.312-13.075c0-7.185,5.301-12.722,13.429-12.722
	c1.885,0,4.005,0.354,5.771,1.061c0.354-0.354,0.472-0.59,0.824-0.942h0.707c-0.117,1.296-0.588,5.536-0.588,5.536h-0.707
	c-0.472-2.474-1.768-4.123-5.891-4.123c-4.947,0-9.423,3.888-9.423,11.073c0,8.128,4.594,11.661,9.659,11.661
	c3.298,0,5.301-1.885,6.596-4.24l0.825,0.354L78.133,113.01L78.133,113.01z"/>
<path fill-rule="evenodd" clip-rule="evenodd" fill="#231F20" d="M55.87,92.75h-0.825c-0.117-2.238-0.824-2.945-2.591-2.945h-3.416
	v18.494c0,3.062,0.589,3.65,2.591,3.65v0.943h-8.835v-0.943c2.004,0,2.592-0.588,2.592-3.77V89.805H41.97
	c-2.238,0-2.592,0.589-3.18,2.945h-0.824l0.588-5.301l0.59,0.117c0.234,0.59,0.706,0.59,2.119,0.59h11.427
	c2.12,0,2.591,0,3.062-0.707h0.707L55.87,92.75L55.87,92.75z"/>
<path fill-rule="evenodd" clip-rule="evenodd" fill="#231F20" d="M30.897,113.48c-1.648,0-2.945-0.234-3.887-0.588
	c-0.943-0.236-1.649-0.59-2.003-0.826c-0.472,0.473-0.825,1.061-0.825,1.061l-0.706-0.234l0.589-5.537l0.824,0.117
	c0.472,2.592,2.238,4.477,5.891,4.477c2.826,0,4.711-2.355,4.711-4.947c0-2.119-0.824-3.18-3.651-5.3
	c-0.942-0.589-1.767-1.061-2.474-1.649c-2.592-1.648-4.24-3.533-4.24-6.596c0-3.535,2.944-5.891,6.832-5.891
	c2.238,0,3.651,0.707,4.123,0.942l0.824-0.942l0.588,0.118l-0.588,5.065l-0.824-0.118c0-2.356-1.414-3.416-3.77-3.416
	c-2.238,0-3.888,1.178-3.888,3.416c0,2.003,1.531,3.298,3.298,4.476c0.943,0.59,1.649,1.061,2.355,1.531
	c4.123,2.945,5.066,4.83,5.066,7.656C39.144,110.418,35.962,113.48,30.897,113.48L30.897,113.48z"/>
<path fill-rule="evenodd" clip-rule="evenodd" fill="#231F20" d="M17.47,92.75h-0.943c0-2.121-0.941-2.945-2.826-2.945H8.399v9.306
	h3.416c1.767,0,2.12-0.942,2.355-2.474h0.824v6.596h-0.824c-0.235-1.766-0.589-2.473-2.474-2.473H8.399v7.891
	c0,2.945,0.706,3.299,2.591,3.299v0.943H2.038v-0.943c2.238,0,2.592-0.588,2.592-3.299V91.336c0-1.648-0.707-2.355-2.592-2.355
	v-0.824h12.25c2.121,0,2.592-0.119,2.945-0.825h0.824L17.47,92.75L17.47,92.75z"/>
<path fill-rule="evenodd" clip-rule="evenodd" fill="#231F20" d="M144.568,94.163v14.136c0,3.062,0.707,3.65,2.592,3.65v0.943h-13.9
	v-0.943c1.061,0,2.003-0.354,2.003-1.061c0-0.471-0.118-1.295-0.354-2.119l-1.061-3.416h-7.773
	c-0.118,0.471-1.531,4.357-1.531,5.418c0,0.943,1.06,1.178,1.767,1.178v0.943h-6.479v-0.943c1.178,0,2.12-0.117,2.944-2.592
	l6.008-19.199c-0.354-0.824-0.824-1.061-1.649-1.178v-0.824h5.301l6.361,20.143c0.589,2.119,1.178,3.18,2.12,3.65
	c1.413-0.471,1.767-0.941,1.767-3.65V91.336c-1.061-1.414-1.178-2.355-3.181-2.355v-0.824h6.008L155.405,105V92.16
	c0-2.591-0.589-3.18-2.591-3.18v-0.824h13.192v0.824c-0.824,0-1.531,0.354-1.531,1.178c0,0.589,0.235,1.178,0.471,1.885l3.77,8.128
	l3.652-7.893c0.588-1.06,0.706-1.649,0.706-2.237c0-0.707-0.471-1.061-1.531-1.061v-0.824h6.243v0.824
	c-1.531,0-2.474,1.413-3.181,3.062l-4.829,9.895v6.479c0,2.826,0.707,3.533,2.592,3.533v0.943h-8.953v-0.943
	c1.885,0,2.592-0.707,2.592-3.533v-5.537l-5.183-10.954c-0.942-2.12-1.296-2.591-1.885-2.944c-1.178,0.471-1.531,1.295-1.531,3.18
	v18.141c0,0,0.117,1.414,0.235,3.062l-1.531,0.117L144.568,94.163L144.568,94.163z M129.844,92.985l-3.298,10.718h6.832
	L129.844,92.985L129.844,92.985z"/>
<path fill-rule="evenodd" clip-rule="evenodd" fill="#231F20" d="M115.237,103.703c0,0-1.06,0-1.767,0v5.066
	c0,2.592,0.707,3.18,2.71,3.18v0.943h-9.07v-0.943c1.885,0,2.591-0.707,2.591-3.299V92.043c0-2.592-0.706-3.062-2.591-3.062v-0.824
	h6.832c6.596,0,10.483,2.002,10.483,7.42C124.426,101.23,119.714,103.703,115.237,103.703L115.237,103.703z M114.06,89.805h-0.589
	v12.133h1.061c3.887,0,5.89-1.767,5.89-6.243C120.421,91.219,118.653,89.805,114.06,89.805L114.06,89.805z"/>
<path fill-rule="evenodd" clip-rule="evenodd" fill="#231F20" d="M74.128,108.18c-4.477,0-7.539-3.18-7.539-7.773
	c0-4.358,3.181-7.774,7.539-7.774c4.24,0,7.421,3.298,7.421,7.774C81.549,104.764,78.251,108.18,74.128,108.18L74.128,108.18z
	 M74.128,94.045c-3.062,0-4.123,2.945-4.123,6.361c0,3.18,0.942,6.361,4.123,6.361c3.062,0,4.005-3.182,4.005-6.479
	C78.133,97.107,76.955,94.045,74.128,94.045L74.128,94.045z"/>
<path fill-rule="evenodd" clip-rule="evenodd" fill="#231F20" d="M22.299,106.768v-0.826c1.178,0,1.413-0.354,1.413-0.705
	c0-0.473-0.117-0.826-0.235-1.18c0,0-0.235-0.941-0.472-1.648h-4.594l-0.471,1.531c-0.117,0.354-0.236,0.707-0.236,1.178
	s0.472,0.824,1.179,0.824v0.826h-4.595v-0.826c1.179,0,1.65-0.354,2.121-1.648l3.533-10.602c-0.117-0.471-0.471-0.824-1.178-0.824
	v-0.824h3.77c3.062,8.952,3.887,11.309,3.887,11.309c0.59,2.002,1.178,2.59,2.121,2.59v0.826H22.299L22.299,106.768z M20.649,95.341
	l-1.767,5.772h3.651L20.649,95.341L20.649,95.341z"/>
<path fill="#DA552F" d="M43.087,21.38c0,10.103-8.19,18.293-18.293,18.293c-10.103,0-18.293-8.19-18.293-18.293
	c0-10.103,8.19-18.293,18.293-18.293C34.897,3.087,43.087,11.277,43.087,21.38"/>
<path fill="#FFFFFF" d="M27.233,12.233L27.233,12.233h-8.841v18.293h3.659v-5.488h5.183l0,0c3.536,0,6.403-2.866,6.403-6.403
	C33.636,15.1,30.77,12.233,27.233,12.233 M27.233,21.38L27.233,21.38h-5.183v-5.488h5.183v0c1.516,0,2.744,1.229,2.744,2.744
	C29.978,20.151,28.749,21.38,27.233,21.38"/>
<path fill="#DA552F" d="M55.282,27.478V15.282h5.603c2.604,0,4.023,1.76,4.023,3.861c0,2.084-1.437,3.843-4.023,3.843h-3.052v4.491
	H55.282z M62.305,19.144c0-1.006-0.774-1.617-1.779-1.617h-2.693v3.215h2.693C61.531,20.742,62.305,20.131,62.305,19.144"/>
<path fill="#DA552F" d="M66.46,27.478v-8.892h2.279v1.168c0.629-0.755,1.689-1.383,2.767-1.383v2.227
	c-0.162-0.035-0.36-0.053-0.628-0.053c-0.755,0-1.761,0.43-2.139,0.988v5.944H66.46z"/>
<path fill="#DA552F" d="M72.371,22.915c0-2.461,1.724-4.544,4.581-4.544c2.874,0,4.598,2.083,4.598,4.544s-1.724,4.562-4.598,4.562
	C74.095,27.478,72.371,25.376,72.371,22.915 M79.179,22.915c0-1.348-0.792-2.515-2.228-2.515c-1.42,0-2.209,1.167-2.209,2.515
	c0,1.365,0.79,2.532,2.209,2.532C78.387,25.447,79.179,24.28,79.179,22.915"/>
<path fill="#DA552F" d="M89.224,27.478v-1.33c-0.683,0.862-1.616,1.33-2.677,1.33c-2.173,0-3.843-1.653-3.843-4.562
	c0-2.819,1.635-4.544,3.843-4.544c1.024,0,1.994,0.431,2.677,1.329v-4.418h2.299v12.195H89.224z M89.224,24.46v-3.071
	c-0.377-0.575-1.204-0.988-1.958-0.988c-1.31,0-2.208,1.024-2.208,2.515c0,1.509,0.898,2.532,2.208,2.532
	C88.02,25.447,88.847,25.034,89.224,24.46"/>
<path fill="#DA552F" d="M99.646,27.478v-1.312c-0.593,0.646-1.634,1.312-3.052,1.312c-1.904,0-2.803-1.042-2.803-2.73v-6.161h2.28
	v5.263c0,1.204,0.629,1.599,1.599,1.599c0.88,0,1.581-0.485,1.976-0.987v-5.874h2.281v8.892H99.646z"/>
<path fill="#DA552F" d="M103.641,22.915c0-2.658,1.938-4.544,4.598-4.544c1.778,0,2.855,0.772,3.431,1.562l-1.492,1.4
	c-0.412-0.61-1.041-0.934-1.83-0.934c-1.384,0-2.354,1.006-2.354,2.515s0.97,2.532,2.354,2.532c0.789,0,1.418-0.358,1.83-0.952
	l1.492,1.401c-0.575,0.79-1.652,1.581-3.431,1.581C105.579,27.478,103.641,25.591,103.641,22.915"/>
<path fill="#DA552F" d="M113.63,25.089v-4.508h-1.436v-1.994h1.436v-2.371h2.282v2.371h1.759v1.994h-1.759v3.896
	c0,0.557,0.286,0.97,0.789,0.97c0.341,0,0.666-0.126,0.79-0.269l0.485,1.741c-0.341,0.306-0.952,0.558-1.904,0.558
	C114.474,27.478,113.63,26.651,113.63,25.089"/>
<polygon fill="#DA552F" points="132.281,27.478 132.281,22.215 126.623,22.215 126.623,27.478 124.073,27.478 124.073,15.282 
	126.623,15.282 126.623,19.987 132.281,19.987 132.281,15.282 134.85,15.282 134.85,27.478 "/>
<path fill="#DA552F" d="M143.011,27.478v-1.312c-0.593,0.646-1.634,1.312-3.053,1.312c-1.903,0-2.801-1.042-2.801-2.73v-6.161h2.279
	v5.263c0,1.204,0.629,1.599,1.598,1.599c0.881,0,1.582-0.485,1.977-0.987v-5.874h2.282v8.892H143.011z"/>
<path fill="#DA552F" d="M153.415,27.478v-5.46c0-1.204-0.628-1.617-1.6-1.617c-0.897,0-1.579,0.503-1.975,1.006v6.071h-2.28v-8.892
	h2.28V19.7c0.557-0.646,1.635-1.329,3.035-1.329c1.922,0,2.838,1.077,2.838,2.766v6.341H153.415z"/>
<path fill="#DA552F" d="M158.432,25.089v-4.508h-1.436v-1.994h1.436v-2.371h2.282v2.371h1.759v1.994h-1.759v3.896
	c0,0.557,0.286,0.97,0.789,0.97c0.341,0,0.666-0.126,0.791-0.269l0.484,1.741c-0.341,0.306-0.951,0.558-1.904,0.558
	C159.275,27.478,158.432,26.651,158.432,25.089"/>
</svg>
