<?xml version="1.0" encoding="utf-8"?>
<!-- Generator: Adobe Illustrator 16.0.0, SVG Export Plug-In . SVG Version: 6.00 Build 0)  -->
<!DOCTYPE svg PUBLIC "-//W3C//DTD SVG 1.1//EN" "http://www.w3.org/Graphics/SVG/1.1/DTD/svg11.dtd">
<svg version="1.1" id="Layer_1" xmlns="http://www.w3.org/2000/svg" xmlns:xlink="http://www.w3.org/1999/xlink" x="0px" y="0px"
	 width="45.263px" height="45.263px" viewBox="0 0 45.263 45.263" enable-background="new 0 0 45.263 45.263" xml:space="preserve">
<g>
	<path fill="#FFFFFF" d="M9.921,22.748c0,0.55-0.45,1-1,1H3.436c-0.55,0-1-0.45-1-1V3.435c0-0.55,0.45-1,1-1h5.485
		c0.55,0,1,0.45,1,1V22.748z"/>
	<path fill="none" stroke="#000000" stroke-width="0.5" stroke-miterlimit="10" d="M9.921,22.748c0,0.55-0.45,1-1,1H3.436
		c-0.55,0-1-0.45-1-1V3.435c0-0.55,0.45-1,1-1h5.485c0.55,0,1,0.45,1,1V22.748z"/>
</g>
<g>
	<path fill="#FFFFFF" d="M7.908,7.585c0,0.55-0.45,1-1,1h-1.46c-0.55,0-1-0.45-1-1v-1.46c0-0.55,0.45-1,1-1h1.46c0.55,0,1,0.45,1,1
		V7.585z"/>
	<path fill="none" stroke="#000000" stroke-width="0.5" stroke-miterlimit="10" d="M7.908,7.585c0,0.55-0.45,1-1,1h-1.46
		c-0.55,0-1-0.45-1-1v-1.46c0-0.55,0.45-1,1-1h1.46c0.55,0,1,0.45,1,1V7.585z"/>
</g>
<g>
	<path fill="#FFFFFF" d="M7.908,13.779c0,0.55-0.45,1-1,1h-1.46c-0.55,0-1-0.45-1-1v-1.46c0-0.55,0.45-1,1-1h1.46c0.55,0,1,0.45,1,1
		V13.779z"/>
	<path fill="none" stroke="#000000" stroke-width="0.5" stroke-miterlimit="10" d="M7.908,13.779c0,0.55-0.45,1-1,1h-1.46
		c-0.55,0-1-0.45-1-1v-1.46c0-0.55,0.45-1,1-1h1.46c0.55,0,1,0.45,1,1V13.779z"/>
</g>
<g>
	<path fill="#FFFFFF" d="M7.908,19.973c0,0.55-0.45,1-1,1h-1.46c-0.55,0-1-0.45-1-1v-1.46c0-0.55,0.45-1,1-1h1.46c0.55,0,1,0.45,1,1
		V19.973z"/>
	<path fill="none" stroke="#000000" stroke-width="0.5" stroke-miterlimit="10" d="M7.908,19.973c0,0.55-0.45,1-1,1h-1.46
		c-0.55,0-1-0.45-1-1v-1.46c0-0.55,0.45-1,1-1h1.46c0.55,0,1,0.45,1,1V19.973z"/>
</g>
<g>
	<path fill="#FFFFFF" d="M20.901,22.748c0,0.55-0.45,1-1,1h-5.485c-0.55,0-1-0.45-1-1V3.435c0-0.55,0.45-1,1-1h5.485
		c0.55,0,1,0.45,1,1V22.748z"/>
	<path fill="none" stroke="#000000" stroke-width="0.5" stroke-miterlimit="10" d="M20.901,22.748c0,0.55-0.45,1-1,1h-5.485
		c-0.55,0-1-0.45-1-1V3.435c0-0.55,0.45-1,1-1h5.485c0.55,0,1,0.45,1,1V22.748z"/>
</g>
<g>
	<path fill="#FFFFFF" d="M18.888,7.585c0,0.55-0.45,1-1,1h-1.46c-0.55,0-1-0.45-1-1v-1.46c0-0.55,0.45-1,1-1h1.46c0.55,0,1,0.45,1,1
		V7.585z"/>
	<path fill="none" stroke="#000000" stroke-width="0.5" stroke-miterlimit="10" d="M18.888,7.585c0,0.55-0.45,1-1,1h-1.46
		c-0.55,0-1-0.45-1-1v-1.46c0-0.55,0.45-1,1-1h1.46c0.55,0,1,0.45,1,1V7.585z"/>
</g>
<g>
	<path fill="#FFFFFF" d="M18.888,13.779c0,0.55-0.45,1-1,1h-1.46c-0.55,0-1-0.45-1-1v-1.46c0-0.55,0.45-1,1-1h1.46
		c0.55,0,1,0.45,1,1V13.779z"/>
	<path fill="none" stroke="#000000" stroke-width="0.5" stroke-miterlimit="10" d="M18.888,13.779c0,0.55-0.45,1-1,1h-1.46
		c-0.55,0-1-0.45-1-1v-1.46c0-0.55,0.45-1,1-1h1.46c0.55,0,1,0.45,1,1V13.779z"/>
</g>
<g>
	<path fill="#FFFFFF" d="M18.888,19.973c0,0.55-0.45,1-1,1h-1.46c-0.55,0-1-0.45-1-1v-1.46c0-0.55,0.45-1,1-1h1.46
		c0.55,0,1,0.45,1,1V19.973z"/>
	<path fill="none" stroke="#000000" stroke-width="0.5" stroke-miterlimit="10" d="M18.888,19.973c0,0.55-0.45,1-1,1h-1.46
		c-0.55,0-1-0.45-1-1v-1.46c0-0.55,0.45-1,1-1h1.46c0.55,0,1,0.45,1,1V19.973z"/>
</g>
</svg>
