<?xml version="1.0" encoding="utf-8"?>
<!-- Generator: Adobe Illustrator 16.0.0, SVG Export Plug-In . SVG Version: 6.00 Build 0)  -->
<!DOCTYPE svg PUBLIC "-//W3C//DTD SVG 1.1//EN" "http://www.w3.org/Graphics/SVG/1.1/DTD/svg11.dtd">
<svg version="1.1" id="Layer_1" xmlns="http://www.w3.org/2000/svg" xmlns:xlink="http://www.w3.org/1999/xlink" x="0px" y="0px"
	 width="180.5px" height="35.5px" viewBox="0 0 180.5 35.5" enable-background="new 0 0 180.5 35.5" xml:space="preserve">
<g>
	<path fill="#0A9600" d="M69.974,14.877V25.5h-3.881V14.877h-3.921v-3.381h11.723v3.381H69.974z"/>
	<path fill="#0A9600" d="M82.954,21.279h-6.161c0.12,1.16,0.8,1.68,1.78,1.68c0.92,0,1.681-0.2,2.721-0.74l1.38,2.301
		c-1.3,0.76-2.641,1.2-4.28,1.2c-3.161,0-4.901-2.241-4.901-5.462c0-3.62,2.04-5.48,4.801-5.48c2.881,0,4.682,1.9,4.682,5.801
		C82.975,20.879,82.975,21.099,82.954,21.279z M78.193,17.438c-0.82,0-1.28,0.56-1.4,1.6h3.001
		C79.613,17.978,79.253,17.438,78.193,17.438z"/>
	<path fill="#0A9600" d="M89.653,25.72c-3.08,0-4.921-1.96-4.921-5.501c0-3.221,1.641-5.441,5.001-5.441
		c1.98,0,3.121,0.92,4.041,2.4l-2.48,1.88c-0.5-0.92-0.841-1.36-1.62-1.36c-0.921,0-1.381,0.92-1.381,2.581
		c0,1.661,0.5,2.521,1.48,2.521c0.68,0,1.16-0.38,1.82-1.36l2.28,1.78C92.654,25.02,91.514,25.72,89.653,25.72z"/>
	<path fill="#0A9600" d="M101.934,25.5v-5.962c0-1.36-0.46-1.72-1.2-1.72c-0.761,0-1.221,0.36-1.221,1.68V25.5h-3.601V12.357
		l3.601-1.44v4.781c0.66-0.5,1.4-0.92,2.641-0.92c2.301,0,3.401,1.54,3.401,4.301V25.5H101.934z"/>
	<path d="M114.174,25.72c-4.161,0-6.382-3.081-6.382-7.222c0-4.501,2.641-7.222,6.401-7.222c3.441,0,4.802,1.48,5.762,4.121
		l-3.521,1.38c-0.501-1.3-0.98-2.121-2.261-2.121c-1.62,0-2.32,1.62-2.32,3.841c0,2.141,0.68,3.841,2.36,3.841
		c1.22,0,1.74-0.66,2.5-1.98l3.281,1.74C119.055,23.939,117.494,25.72,114.174,25.72z"/>
	<path d="M128.853,18.958c-0.46-0.5-0.979-0.88-1.68-0.88c-0.881,0-1.421,0.42-1.421,1.7V25.5h-3.601V14.997h3.601v0.76
		c0.62-0.6,1.32-0.98,2.241-0.98c0.76,0,1.28,0.18,1.7,0.44L128.853,18.958z"/>
	<path d="M137.413,25.5v-0.701c-0.641,0.5-1.4,0.921-2.62,0.921c-2.301,0-3.401-1.54-3.401-4.302v-6.421h3.621v5.962
		c0,1.359,0.46,1.72,1.2,1.72s1.2-0.36,1.2-1.681v-6.001h3.621V25.5H137.413z"/>
	<path d="M149.653,25.5v-5.962c0-1.36-0.46-1.72-1.2-1.72c-0.761,0-1.221,0.36-1.221,1.68V25.5h-3.601V14.997h3.601v0.7
		c0.66-0.5,1.4-0.92,2.641-0.92c2.301,0,3.401,1.54,3.401,4.301V25.5H149.653z"/>
	<path d="M160.292,25.72c-3.08,0-4.921-1.96-4.921-5.501c0-3.221,1.641-5.441,5.001-5.441c1.98,0,3.121,0.92,4.041,2.4l-2.48,1.88
		c-0.5-0.92-0.841-1.36-1.62-1.36c-0.921,0-1.381,0.92-1.381,2.581c0,1.661,0.5,2.521,1.48,2.521c0.68,0,1.16-0.38,1.82-1.36
		l2.28,1.78C163.293,25.02,162.152,25.72,160.292,25.72z"/>
	<path d="M172.572,25.5v-5.962c0-1.36-0.46-1.72-1.2-1.72c-0.761,0-1.221,0.36-1.221,1.68V25.5h-3.601V12.357l3.601-1.44v4.781
		c0.66-0.5,1.4-0.92,2.641-0.92c2.301,0,3.401,1.54,3.401,4.301V25.5H172.572z"/>
</g>
<g>
	<polygon fill="#0A9600" points="6,5.5 6,13.5 14,13.5 14,29.5 22,29.5 22,13.5 30,13.5 30,5.5 	"/>
	<polygon fill="#0A9600" points="38,21.5 38,13.5 30,13.5 30,29.5 54,29.5 54,21.5 	"/>
	<rect x="38" y="5.5" fill="#0A9600" width="16" height="8"/>
</g>
</svg>
