<?xml version="1.0" encoding="utf-8"?>
<!-- Generator: Adobe Illustrator 16.0.0, SVG Export Plug-In . SVG Version: 6.00 Build 0)  -->
<!DOCTYPE svg PUBLIC "-//W3C//DTD SVG 1.1//EN" "http://www.w3.org/Graphics/SVG/1.1/DTD/svg11.dtd">
<svg version="1.1" id="Layer_1" xmlns="http://www.w3.org/2000/svg" xmlns:xlink="http://www.w3.org/1999/xlink" x="0px" y="0px"
	 width="45.263px" height="45.263px" viewBox="0 0 45.263 45.263" enable-background="new 0 0 45.263 45.263" xml:space="preserve">
<path fill="none" stroke="#000000" stroke-width="0.5" stroke-miterlimit="10" d="M12.522,1.813c0.453,0.642,1.412,1.7,2.836,1.697
	c0.787-0.002,1.678-0.004,1.833,0.117c0,0,0,0.001,0.001,0.006c-0.188,0.197-0.869,0.531-1.288,0.735
	c-1.06,0.52-1.976,0.968-1.974,1.736c0.001,0.467,0.355,0.792,0.697,1.107C15,7.551,15.383,7.902,15.391,8.386
	c0.008,0.535-0.431,1.251-1.271,2.072c-0.467,0.457-0.881,0.955-0.746,1.506c0.142,0.583,0.745,0.779,1.443,1.005
	c0.98,0.317,2.324,0.755,3.331,2.216c0.899,1.305-2.38,5.121-5.126,7.563 M11.165,22.62c0.582-1.798,0.4-2.297-0.564-3.413
	c-0.308-0.357-0.692-0.802-1.159-1.479c-1.132-1.645-0.107-2.759,1.241-3.943c0.165-0.144,0.312-0.274,0.431-0.389
	c0.182-0.177,1.75-1.773,1.153-3.164c-0.394-0.917-1.503-1.36-3.395-1.356c-0.773,0.002-1.326-0.225-1.69-0.692
	c-0.905-1.161-0.525-3.593-0.25-4.656"/>
<circle fill="none" stroke="#000000" stroke-width="0.5" stroke-miterlimit="10" cx="12.58" cy="12.361" r="10.549"/>
</svg>
